<svg width="70" height="70" viewBox="0 0 70 70" fill="none" xmlns="http://www.w3.org/2000/svg">
<path d="M60.5391 49.4676C59.3359 46.0359 56.5318 44.2969 53.8248 42.6152C51.4691 41.151 49.2447 39.7674 47.79 37.2832C43.7801 30.4021 41.5775 26.25 35.0082 26.25C28.4389 26.25 26.2295 30.4035 22.21 37.2818C20.7539 39.7715 18.5186 41.1578 16.1602 42.6248C13.4531 44.3078 10.6545 46.0428 9.44727 49.4676C8.97742 50.7026 8.74099 52.014 8.75 53.3354C8.75 58.9053 13.1865 63.4375 18.1016 63.4375C23.0166 63.4375 29.4916 60.9588 35.0219 60.9588C40.5522 60.9588 46.9369 63.4375 51.9135 63.4375C56.89 63.4375 61.25 58.9053 61.25 53.3354C61.2539 52.0133 61.0129 50.7019 60.5391 49.4676Z" fill="#4E36E9"/>
<path d="M9.84375 39.375C14.0722 39.375 17.5 34.9678 17.5 29.5312C17.5 24.0947 14.0722 19.6875 9.84375 19.6875C5.61532 19.6875 2.1875 24.0947 2.1875 29.5312C2.1875 34.9678 5.61532 39.375 9.84375 39.375Z" fill="#4E36E9"/>
<path d="M25.1562 26.25C29.3847 26.25 32.8125 21.8428 32.8125 16.4062C32.8125 10.9697 29.3847 6.5625 25.1562 6.5625C20.9278 6.5625 17.5 10.9697 17.5 16.4062C17.5 21.8428 20.9278 26.25 25.1562 26.25Z" fill="#4E36E9"/>
<path d="M44.8438 26.25C49.0722 26.25 52.5 21.8428 52.5 16.4062C52.5 10.9697 49.0722 6.5625 44.8438 6.5625C40.6153 6.5625 37.1875 10.9697 37.1875 16.4062C37.1875 21.8428 40.6153 26.25 44.8438 26.25Z" fill="#4E36E9"/>
<path d="M60.1562 39.375C64.3847 39.375 67.8125 34.9678 67.8125 29.5312C67.8125 24.0947 64.3847 19.6875 60.1562 19.6875C55.9278 19.6875 52.5 24.0947 52.5 29.5312C52.5 34.9678 55.9278 39.375 60.1562 39.375Z" fill="#4E36E9"/>
</svg>
