<svg width="70" height="70" viewBox="0 0 70 70" fill="none" xmlns="http://www.w3.org/2000/svg">
<path d="M45.4779 8.8293C42.8174 5.95684 39.1014 4.375 34.9998 4.375C30.8764 4.375 27.148 5.94727 24.4998 8.80195C21.8229 11.6881 20.5186 15.6105 20.8248 19.8461C21.4318 28.2023 27.7906 35 34.9998 35C42.209 35 48.5568 28.2037 49.1734 19.8488C49.4838 15.6516 48.1713 11.7373 45.4779 8.8293V8.8293ZM59.0623 65.625H10.9373C10.3074 65.6332 9.68358 65.5009 9.11124 65.2376C8.5389 64.9744 8.03245 64.5869 7.62871 64.1033C6.74004 63.041 6.38184 61.5904 6.64707 60.1234C7.80098 53.7223 11.4021 48.3451 17.0623 44.5703C22.0908 41.2193 28.4605 39.375 34.9998 39.375C41.5391 39.375 47.9088 41.2207 52.9373 44.5703C58.5975 48.3438 62.1986 53.7209 63.3525 60.1221C63.6178 61.5891 63.2596 63.0396 62.3709 64.102C61.9673 64.5858 61.4609 64.9735 60.8886 65.237C60.3162 65.5005 59.6923 65.633 59.0623 65.625V65.625Z" fill="white"/>
</svg>
