<svg width="70" height="70" viewBox="0 0 70 70" fill="none" xmlns="http://www.w3.org/2000/svg">
<path d="M47.5008 58.8636V38.1818H24.8442C24.1811 38.1818 23.5452 37.8466 23.0764 37.2499C22.6075 36.6532 22.3441 35.8439 22.3441 35C22.3441 34.1561 22.6075 33.3468 23.0764 32.7501C23.5452 32.1534 24.1811 31.8182 24.8442 31.8182H47.5008V11.1364C47.4983 8.18379 46.5756 5.35304 44.9352 3.26525C43.2948 1.17747 41.0706 0.0031584 38.7506 0H8.75015C6.43022 0.0031584 4.20603 1.17747 2.5656 3.26525C0.925166 5.35304 0.00248164 8.18379 0 11.1364V58.8636C0.00248164 61.8162 0.925166 64.647 2.5656 66.7347C4.20603 68.8225 6.43022 69.9968 8.75015 70H38.7506C41.0706 69.9968 43.2948 68.8225 44.9352 66.7347C46.5756 64.647 47.4983 61.8162 47.5008 58.8636V58.8636ZM61.4651 38.1818L53.2337 48.6599C52.7846 49.2615 52.538 50.0625 52.5463 50.8922C52.5547 51.7219 52.8174 52.5146 53.2784 53.1014C53.7394 53.6881 54.3622 54.0224 55.0142 54.033C55.6661 54.0437 56.2955 53.7298 56.7681 53.1582L69.2683 37.2491C69.7368 36.6525 70 35.8435 70 35C70 34.1565 69.7368 33.3475 69.2683 32.7509L56.7681 16.8418C56.2955 16.2702 55.6661 15.9563 55.0142 15.967C54.3622 15.9776 53.7394 16.3119 53.2784 16.8986C52.8174 17.4854 52.5547 18.2781 52.5463 19.1078C52.538 19.9375 52.7846 20.7385 53.2337 21.3401L61.4651 31.8182H47.5008V38.1818H61.4651Z" fill="white"/>
</svg>
