<svg width="70" height="70" viewBox="0 0 70 70" fill="none" xmlns="http://www.w3.org/2000/svg">
<path fill-rule="evenodd" clip-rule="evenodd" d="M37.4426 23.3238C37.4579 17.9009 35.6102 12.6327 32.2007 8.37772C28.8122 4.14627 24.0543 1.18913 18.7214 3.43323e-05C13.3885 1.18928 8.63064 4.14639 5.24205 8.37772C1.83298 12.6321 -0.0146742 17.8996 8.77741e-05 23.3219V30.3179C8.77741e-05 31.5538 0.492753 32.7393 1.3697 33.6138C1.8024 34.0462 2.31785 34.3896 2.88616 34.6241C3.45448 34.8587 4.06434 34.9796 4.68041 34.9799H32.7623C34.0038 34.9799 35.1941 34.4883 36.073 33.6138C36.95 32.7393 37.4426 31.5538 37.4426 30.3159V23.3238V23.3238ZM19.7067 27.2066C20.2293 27.2066 20.7306 27.0019 21.1002 26.6374C21.4697 26.273 21.6774 25.7787 21.6774 25.2633V21.3766H25.6187C26.1413 21.3766 26.6426 21.1719 27.0121 20.8074C27.3817 20.443 27.5893 19.9487 27.5893 19.4333C27.5893 18.9179 27.3817 18.4236 27.0121 18.0592C26.6426 17.6947 26.1413 17.49 25.6187 17.49H21.6774V13.6033C21.6774 13.0879 21.4697 12.5936 21.1002 12.2292C20.7306 11.8647 20.2293 11.66 19.7067 11.66C19.184 11.66 18.6828 11.8647 18.3132 12.2292C17.9437 12.5936 17.736 13.0879 17.736 13.6033V17.49H13.7947C13.2721 17.49 12.7708 17.6947 12.4012 18.0592C12.0317 18.4236 11.8241 18.9179 11.8241 19.4333C11.8241 19.9487 12.0317 20.443 12.4012 20.8074C12.7708 21.1719 13.2721 21.3766 13.7947 21.3766H17.736V25.2633C17.736 25.7787 17.9437 26.273 18.3132 26.6374C18.6828 27.0019 19.184 27.2066 19.7067 27.2066V27.2066Z" fill="white"/>
<path fill-rule="evenodd" clip-rule="evenodd" d="M27.412 54.3044L16.8611 43.9017L44.7066 16.4386C45.3993 15.7555 46.2218 15.2135 47.127 14.8438C48.0321 14.4741 49.0023 14.2838 49.982 14.2838C50.9618 14.2838 51.9319 14.4741 52.8371 14.8438C53.7422 15.2135 54.5647 15.7555 55.2575 16.4386C55.9503 17.1218 56.4998 17.9329 56.8747 18.8255C57.2497 19.7181 57.4426 20.6748 57.4426 21.6409C57.4426 22.6071 57.2497 23.5638 56.8747 24.4564C56.4998 25.349 55.9503 26.16 55.2575 26.8432L27.412 54.3044ZM11.2861 43.9017L41.922 13.6908C44.0602 11.5823 46.9602 10.3977 49.984 10.3977C53.0078 10.3977 55.9078 11.5823 58.046 13.6908C60.1841 15.7993 61.3853 18.659 61.3853 21.6409C61.3853 24.6228 60.1841 27.4826 58.046 29.5911L27.4101 59.802L11.2861 43.9017V43.9017Z" fill="white"/>
<path fill-rule="evenodd" clip-rule="evenodd" d="M12.9006 62.2565L8.79961 58.2143L17.7366 49.3994L21.8355 53.4415L12.9006 62.2565V62.2565ZM3.22461 58.2143L17.7366 43.9017L27.4125 53.4415L12.9006 67.7522L3.22461 58.2105V58.2143Z" fill="white"/>
<path d="M1.61239 53.4415C1.18495 53.8632 0.944824 54.435 0.944824 55.0312C0.944824 55.6274 1.18495 56.1992 1.61239 56.6208L14.5123 69.3418C14.7242 69.5506 14.9756 69.7162 15.2523 69.8291C15.529 69.942 15.8256 70.0001 16.125 70C16.4245 69.9999 16.721 69.9417 16.9977 69.8286C17.2743 69.7155 17.5256 69.5497 17.7373 69.3409C17.949 69.132 18.1169 68.884 18.2314 68.6112C18.3459 68.3383 18.4048 68.0458 18.4048 67.7505C18.4047 67.4552 18.3456 67.1628 18.2309 66.89C18.1162 66.6172 17.9482 66.3694 17.7363 66.1606L4.83837 53.4415C4.62662 53.2325 4.37517 53.0667 4.09841 52.9536C3.82164 52.8405 3.52498 52.7822 3.22538 52.7822C2.92578 52.7822 2.62912 52.8405 2.35236 52.9536C2.07559 53.0667 1.82414 53.2325 1.61239 53.4415Z" fill="white"/>
<path fill-rule="evenodd" clip-rule="evenodd" d="M1.61225 56.6208C1.18472 56.199 0.94464 55.6269 0.944824 55.0305C0.945009 54.4341 1.18544 53.8622 1.61323 53.4406C2.04102 53.019 2.62113 52.7822 3.22593 52.7824C3.83073 52.7826 4.41069 53.0197 4.83822 53.4415L17.7362 66.1606C18.164 66.5822 18.4044 67.1541 18.4046 67.7505C18.4048 68.3469 18.1647 68.919 17.7372 69.3409C17.3097 69.7627 16.7297 69.9998 16.1249 70C15.5201 70.0002 14.94 69.7634 14.5122 69.3418L1.61225 56.6208V56.6208Z" fill="white"/>
<path d="M60.6432 7.94825C60.2154 8.37011 59.9751 8.94227 59.9751 9.53887C59.9751 10.1355 60.2154 10.7076 60.6432 11.1295C61.071 11.5513 61.6512 11.7883 62.2562 11.7883C62.8612 11.7883 63.4414 11.5513 63.8692 11.1295L69.3319 5.74258C69.7596 5.32072 70 4.74856 70 4.15197C70 3.55537 69.7596 2.98321 69.3319 2.56135C68.9041 2.1395 68.3239 1.9025 67.7189 1.9025C67.1139 1.9025 66.5337 2.1395 66.1059 2.56135L60.6432 7.94825Z" fill="white"/>
<path fill-rule="evenodd" clip-rule="evenodd" d="M60.6432 11.1295C60.4312 10.9207 60.2631 10.6727 60.1484 10.3998C60.0337 10.1269 59.9746 9.83432 59.9746 9.53887C59.9746 9.24343 60.0337 8.95088 60.1484 8.67796C60.2631 8.40503 60.4312 8.15707 60.6432 7.94826L66.1058 2.56136C66.3177 2.35248 66.5691 2.18678 66.8459 2.07373C67.1226 1.96069 67.4193 1.9025 67.7188 1.9025C68.0184 1.9025 68.315 1.96069 68.5918 2.07373C68.8685 2.18678 69.12 2.35248 69.3318 2.56136C69.5436 2.77024 69.7117 3.01822 69.8263 3.29114C69.9409 3.56406 69.9999 3.85657 69.9999 4.15197C69.9999 4.44738 69.9409 4.73988 69.8263 5.0128C69.7117 5.28572 69.5436 5.53371 69.3318 5.74259L63.8691 11.1295C63.4416 11.551 62.8617 11.7878 62.2571 11.7878C61.6525 11.7878 61.0727 11.551 60.6451 11.1295H60.6432Z" fill="white"/>
<path fill-rule="evenodd" clip-rule="evenodd" d="M58.0437 14.5556L57.1687 13.6908L59.2182 11.6697C59.2757 11.613 59.3439 11.5679 59.419 11.5371C59.4941 11.5063 59.5747 11.4904 59.656 11.4904C59.7373 11.4903 59.8179 11.506 59.8931 11.5366C59.9683 11.5672 60.0366 11.6121 60.0942 11.6688C60.1518 11.7254 60.1975 11.7927 60.2287 11.8668C60.2599 11.9409 60.276 12.0203 60.2761 12.1005C60.2762 12.1807 60.2603 12.2601 60.2292 12.3343C60.1982 12.4084 60.1526 12.4758 60.0952 12.5326L58.0457 14.5536L58.0437 14.5556ZM51.5957 13.6908L56.4317 8.91994C57.287 8.07648 58.4471 7.60263 59.6567 7.60263C60.8663 7.60263 62.0264 8.07648 62.8817 8.91994C63.737 9.76339 64.2175 10.9074 64.2175 12.1002C64.2175 13.293 63.737 14.437 62.8817 15.2804L58.0437 20.0513L51.5957 13.6908V13.6908Z" fill="white"/>
<path d="M39.317 16.2618C38.8895 16.6835 38.6494 17.2553 38.6494 17.8515C38.6494 18.4477 38.8895 19.0195 39.317 19.4411L51.9036 31.8531C52.1139 32.0679 52.3655 32.2391 52.6437 32.3569C52.9219 32.4748 53.221 32.5368 53.5238 32.5393C53.8265 32.5419 54.1267 32.485 54.4069 32.372C54.6871 32.2589 54.9417 32.092 55.1557 31.8809C55.3698 31.6698 55.5391 31.4188 55.6538 31.1424C55.7684 30.8661 55.8261 30.5701 55.8235 30.2715C55.8209 29.973 55.758 29.678 55.6385 29.4037C55.519 29.1294 55.3453 28.8813 55.1276 28.6738L42.541 16.2618C42.1134 15.8403 41.5336 15.6035 40.929 15.6035C40.3244 15.6035 39.7446 15.8403 39.317 16.2618V16.2618Z" fill="white"/>
<path fill-rule="evenodd" clip-rule="evenodd" d="M39.3161 19.4411C39.0983 19.2336 38.9247 18.9855 38.8052 18.7112C38.6857 18.4369 38.6228 18.1419 38.6202 17.8434C38.6176 17.5448 38.6753 17.2488 38.7899 16.9725C38.9046 16.6962 39.0739 16.4451 39.2879 16.234C39.502 16.0229 39.7566 15.856 40.0368 15.7429C40.317 15.6299 40.6172 15.573 40.9199 15.5756C41.2226 15.5781 41.5218 15.6402 41.8 15.758C42.0782 15.8758 42.3297 16.0471 42.5401 16.2618L55.1267 28.6719C55.3385 28.8806 55.5066 29.1285 55.6212 29.4013C55.7359 29.6741 55.795 29.9665 55.7951 30.2618C55.7952 30.5571 55.7363 30.8495 55.6218 31.1224C55.5073 31.3953 55.3394 31.6432 55.1277 31.8521C54.916 32.061 54.6646 32.2267 54.388 32.3398C54.1114 32.4529 53.8149 32.5112 53.5154 32.5113C53.2159 32.5114 52.9194 32.4533 52.6427 32.3403C52.3659 32.2274 52.1145 32.0618 51.9027 31.8531L39.3161 19.4411V19.4411Z" fill="white"/>
<path d="M8.06015 37.5431C7.6327 37.9648 7.39258 38.5366 7.39258 39.1328C7.39258 39.729 7.6327 40.3008 8.06015 40.7224L30.636 62.9832C30.8477 63.1921 31.0991 63.3578 31.3757 63.4709C31.6523 63.584 31.9489 63.6423 32.2483 63.6424C32.5478 63.6425 32.8443 63.5844 33.1211 63.4714C33.3978 63.3585 33.6492 63.193 33.861 62.9842C34.0728 62.7754 34.2409 62.5276 34.3556 62.2548C34.4703 61.982 34.5293 61.6896 34.5294 61.3943C34.5295 61.099 34.4706 60.8065 34.3561 60.5337C34.2416 60.2608 34.0737 60.0128 33.862 59.8039L11.2861 37.5431C10.8585 37.1216 10.2787 36.8848 9.67412 36.8848C9.06953 36.8848 8.48969 37.1216 8.06212 37.5431H8.06015Z" fill="white"/>
<path fill-rule="evenodd" clip-rule="evenodd" d="M8.06 40.7224C7.63247 40.3006 7.39239 39.7285 7.39258 39.1321C7.39276 38.5357 7.6332 37.9638 8.06099 37.5422C8.48878 37.1206 9.06888 36.8838 9.67368 36.884C10.2785 36.8842 10.8584 37.1213 11.286 37.5431L33.8599 59.8039C34.2874 60.2258 34.5275 60.7979 34.5273 61.3943C34.5271 61.9907 34.2867 62.5626 33.8589 62.9842C33.6471 63.193 33.3956 63.3585 33.1189 63.4714C32.8422 63.5844 32.5457 63.6425 32.2462 63.6424C31.6414 63.6422 31.0614 63.4051 30.6339 62.9832L8.06197 40.7224H8.06Z" fill="white"/>
</svg>
